<?xml version="1.0"?>
<svg xmlns="http://www.w3.org/2000/svg" id="Layer_1" data-name="Layer 1" viewBox="0 0 512 512" width="512" height="512"><title>Bomb</title><path d="M236,170.784a162.09,162.09,0,0,1,19.538-4.2c.268-.041.536-.086.8-.125q1.334-.2,2.668-.367c.749-.1,1.5-.186,2.25-.273q1.654-.191,3.312-.348,1.351-.129,2.706-.234c.658-.051,1.316-.1,1.975-.145q2.058-.135,4.123-.214c.51-.02,1.021-.033,1.532-.048q2.148-.065,4.3-.074c.1,0,.192,0,.288,0h.188c1.75,0,3.5.037,5.24.093l.118,0a158.275,158.275,0,0,1,37.954,5.9V124H236Z"/><path d="M327.794,186.948c-.027-.009-.056-.012-.083-.021a147.1,147.1,0,0,0-48.117-8.172A144.4,144.4,0,0,0,135.128,323.313c0,79.711,64.85,144.56,144.56,144.56s144.56-64.849,144.56-144.56A144.793,144.793,0,0,0,327.794,186.948Z"/><path d="M130.864,152a54.069,54.069,0,0,0,54.055-54,40.053,40.053,0,0,1,40.054-40h5.472C252.531,58,270,76.35,270,98.436V117h14V98.436C284,68.631,260.25,44,230.445,44h-5.472a54.069,54.069,0,0,0-54.054,54,40.054,40.054,0,0,1-40.055,40H94.752a7,7,0,0,0,0,14Z"/></svg>
